<?xml version="1.0" encoding="UTF-8"?>
<svg version="1.1" xmlns="http://www.w3.org/2000/svg" width="200" height="200">
<path d="M0 0 C-0.875 4.875 -0.875 4.875 -2 6 C-3.45635371 6.22174933 -4.91522956 6.42698698 -6.375 6.625 C-12.92133627 7.8705833 -17.62189216 11.22876585 -23 15 C-23.7425 15.44859375 -24.485 15.8971875 -25.25 16.359375 C-27.42721655 17.64078042 -27.42721655 17.64078042 -30 20 C-30.66680368 23.04279372 -30.66680368 23.04279372 -30 26 C-29.938125 26.7425 -29.87625 27.485 -29.8125 28.25 C-29.113588 30.2504538 -29.113588 30.2504538 -26.6875 31.0625 C-25.800625 31.371875 -24.91375 31.68125 -24 32 C-22.63634717 32.95824253 -21.29205831 33.94721175 -20 35 C-20.41151128 37.77770112 -21.01717269 39.02003481 -22.875 41.1875 C-25.64453425 44.85306004 -26.74167226 48.62445128 -28 53 C-30.97 53.495 -30.97 53.495 -34 54 C-34.144375 54.639375 -34.28875 55.27875 -34.4375 55.9375 C-35 58 -35 58 -36 59 C-37.99950636 59.04443347 -40.00038436 59.03920815 -42 59 C-43.32 59 -44.64 59 -46 59 C-45.45585449 59.15557373 -44.91170898 59.31114746 -44.35107422 59.47143555 C-41.85430777 60.1947705 -39.36490223 60.94089442 -36.875 61.6875 C-36.0190625 61.93177734 -35.163125 62.17605469 -34.28125 62.42773438 C-28.78954022 64.09636927 -24.99902436 65.82267519 -21 70 C-19.40453012 73.67221786 -19.56961699 77.34079931 -20.56640625 81.18359375 C-22.91096091 86.74534 -26.58811655 89.55176701 -32 92 C-40.15975119 95.12954313 -48.88643599 94.98012656 -57.0234375 91.91796875 C-61.44456808 89.86467688 -64.13340358 87.46678969 -66 83 C-67.02597766 76.54588474 -65.79340614 72.228749 -62 67 C-59.25 64.5625 -59.25 64.5625 -57 63 C-57.20625 62.0925 -57.4125 61.185 -57.625 60.25 C-58.0127245 56.88972103 -57.80411967 55.75924185 -56 53 C-59.54039134 50.0843836 -63.1626772 47.49872182 -67 45 C-66.24727273 39.48 -66.24727273 39.48 -64.9375 36.9375 C-63.6881086 34.35542445 -63.5041787 32.83326458 -64 30 C-66.39859044 27.66369252 -66.39859044 27.66369252 -69 26 C-68.75 23.125 -68.75 23.125 -68 20 C-64.00273058 17.20378806 -59.38396844 17.57378819 -54.6796875 17.34375 C-51.8508189 17.25841177 -51.8508189 17.25841177 -50 15 C-45.78645663 14.62546281 -42.81389558 15.20522561 -39 17 C-38.76369873 16.39172363 -38.52739746 15.78344727 -38.28393555 15.15673828 C-36.67481101 12.45375176 -35.28906909 11.81511462 -32.45703125 10.4921875 C-31.54759766 10.06292969 -30.63816406 9.63367188 -29.70117188 9.19140625 C-28.74791016 8.75699219 -27.79464844 8.32257813 -26.8125 7.875 C-25.87857422 7.43285156 -24.94464844 6.99070312 -23.98242188 6.53515625 C-20.02614834 4.69205063 -16.1742963 2.94364227 -11.94921875 1.8203125 C-8.90659957 1.23443951 -8.90659957 1.23443951 -7 -1 C-3.54627068 -2.33692748 -3.29510824 -2.19673883 0 0 Z M-52.5 30.125 C-54.27921665 33.53516525 -54.61950423 35.20553658 -54 39 C-51.71274624 43.32036821 -49.52914866 46.05893629 -45 48 C-42 48.66666667 -42 48.66666667 -39 48 C-35.4405557 45.44648561 -34.19096844 43.93748143 -33.3125 39.625 C-34.21970375 34.84156206 -36.46147758 32.24517341 -40 29 C-44.49296611 26.75351694 -48.79618233 26.97675498 -52.5 30.125 Z M-55 71.625 C-57.23960138 74.79510115 -57.23960138 74.79510115 -57.125 78.125 C-55.72604538 81.70010626 -54.22866458 82.97269899 -51 85 C-46.55244765 86.84036649 -41.29597778 86.69394838 -36.73828125 85.31640625 C-34.57625917 84.38095325 -32.81999331 83.49775011 -31 82 C-29.86521065 78.87866256 -29.86521065 78.87866256 -30 76 C-37.23934834 71.07348243 -47.26056691 64.85299605 -55 71.625 Z " fill="#DE2022" transform="translate(84,56)"/>
<path d="M0 0 C3.34519963 2.30547542 4.65233574 5.18912949 6.25 8.875 C6.65063477 12.06298828 6.65063477 12.06298828 6.69140625 15.4453125 C6.71783203 16.67121094 6.74425781 17.89710937 6.77148438 19.16015625 C6.78501953 20.42730469 6.79855469 21.69445312 6.8125 23 C6.84694709 25.52356821 6.88955822 28.04704182 6.94140625 30.5703125 C6.95373291 31.68422363 6.96605957 32.79813477 6.97875977 33.94580078 C7.24226091 36.79142345 7.7757185 38.46080441 9.25 40.875 C14.65440587 33.75291474 19.9536021 26.5607815 25.1875 19.3125 C26.0386438 18.13421631 26.0386438 18.13421631 26.90698242 16.93212891 C29.06512815 13.93732371 31.20207057 10.94689415 33.25 7.875 C30.6874282 7.84789877 28.12514635 7.82811229 25.5625 7.8125 C24.84126953 7.80412109 24.12003906 7.79574219 23.37695312 7.78710938 C19.53444618 7.76956368 15.98360474 7.93975779 12.25 8.875 C10.25 5.875 10.25 5.875 10.5625 2.75 C11.25 -0.125 11.25 -0.125 12.25 -1.125 C14.84359322 -1.21351529 17.41039691 -1.24025945 20.00390625 -1.22265625 C20.77935287 -1.2212413 21.5547995 -1.21982635 22.35374451 -1.21836853 C24.84003494 -1.21275345 27.3262366 -1.20019846 29.8125 -1.1875 C31.49413933 -1.18248694 33.17578006 -1.1779237 34.85742188 -1.17382812 C38.98831566 -1.16277913 43.11914276 -1.14550445 47.25 -1.125 C48.20150445 2.5539159 48.40835617 3.53237483 46.74609375 7.12890625 C43.93062875 11.59810939 40.6103502 15.6945311 37.3125 19.8125 C33.32229993 24.80130793 29.54710903 29.74361273 26.29077148 35.24829102 C25.25 36.875 25.25 36.875 23.25 38.875 C31.32861415 38.97079384 39.23340366 39.00013633 47.25 37.875 C47.745 41.34 47.745 41.34 48.25 44.875 C45.24067151 47.80927686 42.83445878 48.22199508 38.68992615 48.24053955 C37.97627396 48.22819275 37.26262177 48.21584595 36.52734375 48.203125 C35.78545303 48.20125183 35.04356232 48.19937866 34.27919006 48.19744873 C32.71497078 48.19074157 31.15076789 48.17685353 29.58666992 48.15625 C27.19238696 48.12506365 24.79876296 48.11527331 22.40429688 48.109375 C20.88280447 48.10020546 19.36131876 48.08982985 17.83984375 48.078125 C17.12416733 48.07387512 16.40849091 48.06962524 15.67112732 48.06524658 C12.60005456 48.02104815 10.1859984 47.85366613 7.25 46.875 C6.63125 47.24625 6.0125 47.6175 5.375 48 C4.323125 48.433125 4.323125 48.433125 3.25 48.875 C0.5 47.625 0.5 47.625 -1.75 45.875 C-1.75 45.215 -1.75 44.555 -1.75 43.875 C-2.884375 44.514375 -4.01875 45.15375 -5.1875 45.8125 C-11.06383796 48.71439529 -16.64646462 49.81887959 -23 47.8125 C-27.6894846 45.79068628 -30.4702885 42.43442301 -32.75 37.875 C-33.29360446 32.92017906 -33.31437074 29.00374148 -31.0625 24.5 C-26.91431379 19.79124809 -23.08433927 16.709592 -16.75 15.875 C-12.0779801 15.72131513 -7.42250947 15.75834928 -2.75 15.875 C-3.84786425 10.46712615 -3.84786425 10.46712615 -7.75 6.875 C-13.33141281 6.030678 -18.25401104 5.99407647 -22.9375 9.375 C-24.3296875 10.6125 -24.3296875 10.6125 -25.75 11.875 C-27.23828125 10.58984375 -27.23828125 10.58984375 -28.75 8.875 C-28.9375 5.4375 -28.9375 5.4375 -27.75 1.875 C-20.39049405 -3.86541464 -8.17579506 -4.67837162 0 0 Z M-20.75 25.875 C-23.16339891 27.86459408 -23.16339891 27.86459408 -23.125 31.75 C-23.02521718 34.63844993 -22.79033165 35.80485799 -21.3125 38.375 C-17.47306646 40.62247329 -14.08950152 40.63222845 -9.75 39.875 C-7.14152636 38.77068269 -5.10998824 37.4818005 -2.75 35.875 C-2.75 31.915 -2.75 27.955 -2.75 23.875 C-9.53005657 22.6911806 -14.47471884 22.86339572 -20.75 25.875 Z " fill="#787A79" transform="translate(92.75,81.125)"/>
<path d="M0 0 C4.31628998 2.53054839 6.90963799 5.54141398 8.5 10.3125 C9.11654413 15.01585091 9.22158141 18.25267731 6.5 22.25 C-0.07172191 26.76805881 -7.30969747 26.58281095 -15 26.4375 C-15.9178125 26.42847656 -16.835625 26.41945313 -17.78125 26.41015625 C-20.02111556 26.38682432 -22.26041183 26.35409235 -24.5 26.3125 C-24.07647874 27.76287654 -23.63721348 29.20866155 -23.19140625 30.65234375 C-22.94849854 31.45792725 -22.70559082 32.26351074 -22.45532227 33.09350586 C-21.21142962 35.98278269 -19.4398573 37.40893578 -16.59765625 38.73046875 C-10.55521286 40.40704988 -5.18210558 39.74768811 0.5 37.3125 C3.3125 37.6875 3.3125 37.6875 5.5 38.3125 C5.875 41.0625 5.875 41.0625 5.5 44.3125 C0.99325814 48.20851516 -2.95961603 48.99214089 -8.75 48.875 C-9.49854248 48.86621826 -10.24708496 48.85743652 -11.01831055 48.84838867 C-18.69466238 48.56715196 -24.33533787 46.31487177 -29.9375 41 C-34.48333243 33.18116822 -35.50221844 26.31043919 -34.5 17.3125 C-33.55838422 14.02408796 -32.25792875 11.23828351 -30.5 8.3125 C-29.96375 7.405 -29.4275 6.4975 -28.875 5.5625 C-20.99875164 -1.89920898 -10.11656097 -4.58818007 0 0 Z M-19.5 8.3125 C-22.9313333 11.83657204 -23.49741327 13.29956633 -24.5 18.3125 C-17.24 18.3125 -9.98 18.3125 -2.5 18.3125 C-0.41045968 14.13341936 -0.33447381 13.50839427 -1.5 9.3125 C-2.16 9.3125 -2.82 9.3125 -3.5 9.3125 C-3.5 8.6525 -3.5 7.9925 -3.5 7.3125 C-9.89224657 4.9880467 -13.5737299 4.73204515 -19.5 8.3125 Z " fill="#848585" transform="translate(172.5,80.6875)"/>
<path d="M0 0 C1.47583955 0.0001591 2.95168467 0.00585225 4.42749023 0.01586914 C5.20293686 0.01728409 5.97838348 0.01869904 6.77732849 0.02015686 C9.26361893 0.02577194 11.74982059 0.03832693 14.23608398 0.05102539 C15.91772331 0.05603845 17.59936405 0.06060169 19.28100586 0.06469727 C23.41189965 0.07574626 27.54272674 0.09302094 31.67358398 0.11352539 C32.62508844 3.79244129 32.83194016 4.77090022 31.16967773 8.36743164 C28.35421273 12.83663478 25.03393418 16.93305649 21.73608398 21.05102539 C17.74588392 26.03983332 13.97069302 30.98213813 10.71435547 36.48681641 C9.67358398 38.11352539 9.67358398 38.11352539 7.67358398 40.11352539 C15.75219813 40.20931923 23.65698764 40.23866172 31.67358398 39.11352539 C32.16858398 42.57852539 32.16858398 42.57852539 32.67358398 46.11352539 C29.10811084 49.58491364 25.67088629 49.53771814 20.95092773 49.47680664 C19.83809166 49.4775544 19.83809166 49.4775544 18.70277405 49.47831726 C17.13857334 49.47598213 15.57436849 49.46628661 14.01025391 49.44970703 C11.6157883 49.42607183 9.22243384 49.42915518 6.82788086 49.43579102 C5.30638985 49.43021522 3.78490352 49.42310596 2.26342773 49.41430664 C1.54775131 49.41521805 0.83207489 49.41612946 0.0947113 49.41706848 C-3.59081309 49.36444395 -5.17693519 49.21317927 -8.32641602 47.11352539 C-10.46122509 43.11171002 -10.61472186 39.50609755 -10.70532227 35.01977539 C-10.72231674 34.3506311 -10.73931122 33.68148682 -10.75682068 32.99206543 C-10.80965048 30.86597993 -10.85009227 28.73990897 -10.88891602 26.61352539 C-10.9330428 24.48724121 -10.97991541 22.36109658 -11.03172302 20.23498535 C-11.07795707 18.30595846 -11.1156256 16.37673189 -11.15283203 14.44750977 C-11.3036135 11.55148768 -11.66286877 8.92950625 -12.32641602 6.11352539 C-11.33641602 6.60852539 -11.33641602 6.60852539 -10.32641602 7.11352539 C-9.2332964 10.39288425 -9.15330425 12.93859995 -9.08032227 16.39086914 C-9.04745117 17.62643555 -9.01458008 18.86200195 -8.98071289 20.13500977 C-8.91960857 22.74169401 -8.86230509 25.34847018 -8.80883789 27.95532227 C-8.77467773 29.19217773 -8.74051758 30.4290332 -8.70532227 31.70336914 C-8.68026611 32.83637451 -8.65520996 33.96937988 -8.62939453 35.13671875 C-8.33883214 37.9915352 -7.80617151 39.68944981 -6.32641602 42.11352539 C-0.92201014 34.99144013 4.37718608 27.7993069 9.61108398 20.55102539 C10.46222778 19.3727417 10.46222778 19.3727417 11.33056641 18.1706543 C13.48871213 15.1758491 15.62565455 12.18541954 17.67358398 9.11352539 C15.11101219 9.08642416 12.54873033 9.06663768 9.98608398 9.05102539 C9.26485352 9.04264648 8.54362305 9.03426758 7.80053711 9.02563477 C3.95803017 9.00808907 0.40718872 9.17828318 -3.32641602 10.11352539 C-5.32641602 7.11352539 -5.32641602 7.11352539 -5.01391602 3.98852539 C-4.09354624 0.13970635 -4.09354624 0.13970635 0 0 Z " fill="#828382" transform="translate(108.326416015625,79.886474609375)"/>
<path d="M0 0 C1.43088528 2.86177057 0.59991697 4.93375773 0 8 C0.66 8 1.32 8 2 8 C2.2475 8.639375 2.495 9.27875 2.75 9.9375 C3.79221124 12.09996117 3.79221124 12.09996117 5.6875 12.75 C8.80146062 13.08664439 11.87107191 13.06017169 15 13 C15.33 11.35 15.66 9.7 16 8 C22.7626481 8.48304629 28.34452447 10.00216843 33.671875 14.37109375 C36.20412127 17.47681932 36.18883175 21.11636026 36 25 C34.75946148 29.90100078 32.42410107 33.05933419 28.25 35.875 C20.59749108 40.06834899 12.10789567 41.32822493 3.5390625 39.46484375 C-1.60519817 37.90105687 -6.24168611 35.95744669 -9.10546875 31.140625 C-10.86329749 26.93411779 -10.82516935 22.28371192 -9.27734375 18 C-7.19510769 14.08843105 -4.60910792 11.50632495 -1 9 C-1.20625 8.071875 -1.4125 7.14375 -1.625 6.1875 C-2 3 -2 3 0 0 Z M1 17.625 C-1.23960138 20.79510115 -1.23960138 20.79510115 -1.125 24.125 C0.27395462 27.70010626 1.77133542 28.97269899 5 31 C9.44755235 32.84036649 14.70402222 32.69394838 19.26171875 31.31640625 C21.42374083 30.38095325 23.18000669 29.49775011 25 28 C26.13478935 24.87866256 26.13478935 24.87866256 26 22 C18.76065166 17.07348243 8.73943309 10.85299605 1 17.625 Z " fill="#E45E5F" transform="translate(28,110)"/>
<path d="M0 0 C-0.875 4.875 -0.875 4.875 -2 6 C-3.45635371 6.22174933 -4.91522956 6.42698698 -6.375 6.625 C-12.92133627 7.8705833 -17.62189216 11.22876585 -23 15 C-23.7425 15.44859375 -24.485 15.8971875 -25.25 16.359375 C-27.42721655 17.64078042 -27.42721655 17.64078042 -30 20 C-30.66680368 23.04279372 -30.66680368 23.04279372 -30 26 C-29.938125 26.7425 -29.87625 27.485 -29.8125 28.25 C-29.113588 30.2504538 -29.113588 30.2504538 -26.6875 31.0625 C-25.800625 31.371875 -24.91375 31.68125 -24 32 C-22.63634717 32.95824253 -21.29205831 33.94721175 -20 35 C-20.41151128 37.77770112 -21.01717269 39.02003481 -22.875 41.1875 C-25.64453425 44.85306004 -26.74167226 48.62445128 -28 53 C-30.97 53.495 -30.97 53.495 -34 54 C-34.144375 54.639375 -34.28875 55.27875 -34.4375 55.9375 C-35 58 -35 58 -36 59 C-37.99950636 59.04443347 -40.00038436 59.03920815 -42 59 C-43.32 59 -44.64 59 -46 59 C-44.02 59.66 -42.04 60.32 -40 61 C-40 61.33 -40 61.66 -40 62 C-46.75 61.25 -46.75 61.25 -49 59 C-49 57.68 -49 56.36 -49 55 C-47.2984375 54.814375 -47.2984375 54.814375 -45.5625 54.625 C-44.386875 54.41875 -43.21125 54.2125 -42 54 C-41.67 53.34 -41.34 52.68 -41 52 C-39.02111039 51.27306096 -37.02045442 50.60183749 -35 50 C-35 49.67 -35 49.34 -35 49 C-35.74765625 49.02320313 -36.4953125 49.04640625 -37.265625 49.0703125 C-38.25046875 49.08835938 -39.2353125 49.10640625 -40.25 49.125 C-41.22453125 49.14820313 -42.1990625 49.17140625 -43.203125 49.1953125 C-46.0196498 48.99862781 -47.60949036 48.44568916 -50 47 C-50 46.34 -50 45.68 -50 45 C-51.65 45 -53.3 45 -55 45 C-54.98839844 43.98679688 -54.97679687 42.97359375 -54.96484375 41.9296875 C-54.95545791 40.57812686 -54.94635857 39.2265642 -54.9375 37.875 C-54.92912109 37.20984375 -54.92074219 36.5446875 -54.91210938 35.859375 C-54.86346574 28.7142746 -54.86346574 28.7142746 -57 22 C-54.69 22.33 -52.38 22.66 -50 23 C-50 23.66 -50 24.32 -50 25 C-50.33 25.33 -50.66 25.66 -51 26 C-49.4221875 25.9690625 -49.4221875 25.9690625 -47.8125 25.9375 C-40.89216834 26.05094806 -38.86584195 27.00610958 -34 32 C-33.01 32 -32.02 32 -31 32 C-31.01160156 32.60328125 -31.02320313 33.2065625 -31.03515625 33.828125 C-31.04417969 34.62734375 -31.05320313 35.4265625 -31.0625 36.25 C-31.07410156 37.03890625 -31.08570313 37.8278125 -31.09765625 38.640625 C-31.00385306 40.90691002 -30.63241063 42.8288895 -30 45 C-29.505 44.01 -29.505 44.01 -29 43 C-28.01 43 -27.02 43 -26 43 C-26.33 41.35 -26.66 39.7 -27 38 C-27.66 38 -28.32 38 -29 38 C-28.67 35.69 -28.34 33.38 -28 31 C-29.32 31 -30.64 31 -32 31 C-32.02578125 30.08476563 -32.0515625 29.16953125 -32.078125 28.2265625 C-32.13484375 27.03804687 -32.1915625 25.84953125 -32.25 24.625 C-32.29640625 23.44164063 -32.3428125 22.25828125 -32.390625 21.0390625 C-32.65648799 17.88708247 -32.65648799 17.88708247 -35.046875 16.5859375 C-35.69140625 16.39257812 -36.3359375 16.19921875 -37 16 C-37.33 17.32 -37.66 18.64 -38 20 C-42.75 20.125 -42.75 20.125 -45 19 C-45.99 18.67 -46.98 18.34 -48 18 C-48 18.66 -48 19.32 -48 20 C-53.94 20.33 -59.88 20.66 -66 21 C-66 22.98 -66 24.96 -66 27 C-66.99 26.67 -67.98 26.34 -69 26 C-68.75 23.125 -68.75 23.125 -68 20 C-64.00273058 17.20378806 -59.38396844 17.57378819 -54.6796875 17.34375 C-51.8508189 17.25841177 -51.8508189 17.25841177 -50 15 C-45.78645663 14.62546281 -42.81389558 15.20522561 -39 17 C-38.76369873 16.39172363 -38.52739746 15.78344727 -38.28393555 15.15673828 C-36.67481101 12.45375176 -35.28906909 11.81511462 -32.45703125 10.4921875 C-31.54759766 10.06292969 -30.63816406 9.63367188 -29.70117188 9.19140625 C-28.74791016 8.75699219 -27.79464844 8.32257813 -26.8125 7.875 C-25.87857422 7.43285156 -24.94464844 6.99070312 -23.98242188 6.53515625 C-20.02614834 4.69205063 -16.1742963 2.94364227 -11.94921875 1.8203125 C-8.90659957 1.23443951 -8.90659957 1.23443951 -7 -1 C-3.54627068 -2.33692748 -3.29510824 -2.19673883 0 0 Z M-52.5 30.125 C-54.27921665 33.53516525 -54.61950423 35.20553658 -54 39 C-51.71274624 43.32036821 -49.52914866 46.05893629 -45 48 C-42 48.66666667 -42 48.66666667 -39 48 C-35.4405557 45.44648561 -34.19096844 43.93748143 -33.3125 39.625 C-34.21970375 34.84156206 -36.46147758 32.24517341 -40 29 C-44.49296611 26.75351694 -48.79618233 26.97675498 -52.5 30.125 Z " fill="#E24748" transform="translate(84,56)"/>
<path d="M0 0 C2.25435273 0.05962848 2.25435273 0.05962848 5.4375 -0.625 C9 -1 9 -1 12 1 C12.53496094 0.67515625 13.06992188 0.3503125 13.62109375 0.015625 C16.56892232 -1.24288966 18.86503131 -1.26584867 22.0625 -1.25 C23.62677734 -1.25773438 23.62677734 -1.25773438 25.22265625 -1.265625 C28 -1 28 -1 31 1 C32.29783331 4.89349993 31.8304947 8.03208086 31 12 C29.68 12 28.36 12 27 12 C27 9.36 27 6.72 27 4 C26.34 4 25.68 4 25 4 C25 6.31 25 8.62 25 11 C23.35 11.33 21.7 11.66 20 12 C20 9.36 20 6.72 20 4 C19.34 4 18.68 4 18 4 C18 6.64 18 9.28 18 12 C17.21625 11.835 16.4325 11.67 15.625 11.5 C13.11791961 10.9376293 13.11791961 10.9376293 11 11 C10.67 11.33 10.34 11.66 10 12 C6.33655389 12.13568319 3.49384279 12.16461426 0 11 C-0.61875 11.350625 -1.2375 11.70125 -1.875 12.0625 C-4 13 -4 13 -6.6875 12.5 C-9 11 -9 11 -9.9375 8.1875 C-10.00329522 4.83194391 -9.59206413 2.93274972 -8 0 C-5.1353288 -1.4323356 -3.08594927 -0.57861549 0 0 Z M-4 3 C-4.33 4.65 -4.66 6.3 -5 8 C-3.35 8 -1.7 8 0 8 C0 6.68 0 5.36 0 4 C-1.32 3.67 -2.64 3.34 -4 3 Z M5 3 C5 4.65 5 6.3 5 8 C5.99 7.67 6.98 7.34 8 7 C7.67 5.68 7.34 4.36 7 3 C6.34 3 5.68 3 5 3 Z " fill="#C8C9C9" transform="translate(74,135)"/>
<path d="M0 0 C-0.875 4.875 -0.875 4.875 -2 6 C-3.45635371 6.22174933 -4.91522956 6.42698698 -6.375 6.625 C-12.92133627 7.8705833 -17.62189216 11.22876585 -23 15 C-23.7425 15.44859375 -24.485 15.8971875 -25.25 16.359375 C-27.42721655 17.64078042 -27.42721655 17.64078042 -30 20 C-30.66680368 23.04279372 -30.66680368 23.04279372 -30 26 C-29.938125 26.7425 -29.87625 27.485 -29.8125 28.25 C-29.08891003 30.29001534 -29.08891003 30.29001534 -26.4375 31.25 C-25.633125 31.4975 -24.82875 31.745 -24 32 C-25.32 32.66 -26.64 33.32 -28 34 C-28 33.01 -28 32.02 -28 31 C-29.32 31 -30.64 31 -32 31 C-32.02578125 30.08476563 -32.0515625 29.16953125 -32.078125 28.2265625 C-32.13484375 27.03804687 -32.1915625 25.84953125 -32.25 24.625 C-32.29640625 23.44164063 -32.3428125 22.25828125 -32.390625 21.0390625 C-32.65648799 17.88708247 -32.65648799 17.88708247 -35.046875 16.5859375 C-35.69140625 16.39257812 -36.3359375 16.19921875 -37 16 C-37.33 17.32 -37.66 18.64 -38 20 C-42.75 20.125 -42.75 20.125 -45 19 C-45.99 18.67 -46.98 18.34 -48 18 C-48 18.66 -48 19.32 -48 20 C-53.94 20.33 -59.88 20.66 -66 21 C-66 22.98 -66 24.96 -66 27 C-66.99 26.67 -67.98 26.34 -69 26 C-68.75 23.125 -68.75 23.125 -68 20 C-64.00273058 17.20378806 -59.38396844 17.57378819 -54.6796875 17.34375 C-51.8508189 17.25841177 -51.8508189 17.25841177 -50 15 C-45.78645663 14.62546281 -42.81389558 15.20522561 -39 17 C-38.76369873 16.39172363 -38.52739746 15.78344727 -38.28393555 15.15673828 C-36.67481101 12.45375176 -35.28906909 11.81511462 -32.45703125 10.4921875 C-31.54759766 10.06292969 -30.63816406 9.63367188 -29.70117188 9.19140625 C-28.74791016 8.75699219 -27.79464844 8.32257813 -26.8125 7.875 C-25.87857422 7.43285156 -24.94464844 6.99070312 -23.98242188 6.53515625 C-20.02614834 4.69205063 -16.1742963 2.94364227 -11.94921875 1.8203125 C-8.90659957 1.23443951 -8.90659957 1.23443951 -7 -1 C-3.54627068 -2.33692748 -3.29510824 -2.19673883 0 0 Z " fill="#E44A4B" transform="translate(84,56)"/>
<path d="M0 0 C-0.309375 0.845625 -0.61875 1.69125 -0.9375 2.5625 C-3.16798275 9.69868367 -3.16798275 9.69868367 -1.51171875 16.72265625 C-1.01285156 17.80417969 -0.51398437 18.88570312 0 20 C3.08115743 20.28466242 6.16420323 20.52158834 9.25 20.75 C10.55904297 20.87181641 10.55904297 20.87181641 11.89453125 20.99609375 C17.12873906 21.45717391 17.12873906 21.45717391 21.609375 19.015625 C22.29773437 18.01789063 22.29773437 18.01789063 23 17 C23.66 17.66 24.32 18.32 25 19 C24.34 19 23.68 19 23 19 C23 19.66 23 20.32 23 21 C23.66 21 24.32 21 25 21 C25 21.66 25 22.32 25 23 C23.35 23 21.7 23 20 23 C19.67 23.99 19.34 24.98 19 26 C15.45861382 26.11681812 11.9177276 26.187455 8.375 26.25 C7.37597656 26.28351563 6.37695312 26.31703125 5.34765625 26.3515625 C-0.79989458 26.43298701 -4.32909816 26.11736964 -9 22 C-12.22536313 18.23707634 -12.32551063 14.93987874 -12.30078125 10.18359375 C-11.85333207 6.93522896 -10.99562616 4.77730814 -8.37890625 2.734375 C-3.33333333 0 -3.33333333 0 0 0 Z " fill="#DE2224" transform="translate(30,122)"/>
<path d="M0 0 C0.5625 1.9375 0.5625 1.9375 1 4 C0.67 4.33 0.34 4.66 0 5 C-0.04063832 6.66617115 -0.042721 8.33388095 0 10 C1.98 9.67 3.96 9.34 6 9 C8 12.75 8 12.75 8 15 C8.66 15 9.32 15 10 15 C10 14.01 10 13.02 10 12 C10 11.01 10 10.02 10 9 C11.32 9.33 12.64 9.66 14 10 C14 10.66 14 11.32 14 12 C21.425 12.99 21.425 12.99 29 14 C29.33 13.34 29.66 12.68 30 12 C30 12.99 30 13.98 30 15 C27.64046906 17.35953094 26.22104383 17.49141413 23 18 C23 18.66 23 19.32 23 20 C20.36 20 17.72 20 15 20 C15.48207356 22.50358872 15.48207356 22.50358872 17 25 C20.53514293 26.37967524 20.53514293 26.37967524 24 27 C24 28.98 24 30.96 24 33 C14.81380417 33.31139647 14.81380417 33.31139647 11 31 C10.1875 28.875 10.1875 28.875 10 27 C9.34 27 8.68 27 8 27 C8.08701172 26.09507813 8.08701172 26.09507813 8.17578125 25.171875 C8.31497675 22.70612609 8.33525513 20.44863555 8 18 C5.95047553 15.54335029 5.95047553 15.54335029 3 14 C1.89218335 13.25540192 0.7879626 12.50542445 -0.3125 11.75 C-1.199375 11.1725 -2.08625 10.595 -3 10 C-2.49287967 6.28111761 -1.88391785 3.26545761 0 0 Z " fill="#DE2224" transform="translate(20,91)"/>
<path d="M0 0 C2.19140625 1.37109375 2.19140625 1.37109375 5.25390625 3.87109375 C4.92390625 4.53109375 4.59390625 5.19109375 4.25390625 5.87109375 C2.27390625 5.21109375 0.29390625 4.55109375 -1.74609375 3.87109375 C-2.07609375 5.52109375 -2.40609375 7.17109375 -2.74609375 8.87109375 C-3.73609375 8.54109375 -4.72609375 8.21109375 -5.74609375 7.87109375 C-11.38340784 7.24273071 -16.19416067 6.94009311 -20.93359375 10.37109375 C-22.32578125 11.60859375 -22.32578125 11.60859375 -23.74609375 12.87109375 C-25.234375 11.5859375 -25.234375 11.5859375 -26.74609375 9.87109375 C-26.93359375 6.43359375 -26.93359375 6.43359375 -25.74609375 2.87109375 C-18.80837779 -2.5403247 -8.11988033 -3.33804469 0 0 Z " fill="#7E807F" transform="translate(90.74609375,80.12890625)"/>
<path d="M0 0 C2.9375 0.8125 2.9375 0.8125 6 2 C7.58976443 6.76929329 8.00434669 11.88558592 5.8125 16.5 C2.36132754 19.35614273 -1.98318558 19.12290535 -6.30078125 19.09765625 C-7.27724609 19.09443359 -8.25371094 19.09121094 -9.25976562 19.08789062 C-10.26716797 19.07951172 -11.27457031 19.07113281 -12.3125 19.0625 C-13.33923828 19.05798828 -14.36597656 19.05347656 -15.42382812 19.04882812 C-17.94927882 19.03708184 -20.47460905 19.02065565 -23 19 C-23.33 18.34 -23.66 17.68 -24 17 C-23.67 16.34 -23.34 15.68 -23 15 C-21.80761719 14.93941406 -20.61523438 14.87882812 -19.38671875 14.81640625 C-17.82030075 14.73198851 -16.25389512 14.64734113 -14.6875 14.5625 C-13.90181641 14.52318359 -13.11613281 14.48386719 -12.30664062 14.44335938 C-11.54931641 14.40146484 -10.79199219 14.35957031 -10.01171875 14.31640625 C-9.31522217 14.27974854 -8.61872559 14.24309082 -7.90112305 14.20532227 C-5.7783428 14.04418847 -5.7783428 14.04418847 -3 13 C-1.96949416 10.77543907 -1.96949416 10.77543907 -1.3125 8.125 C-1.06113281 7.24070312 -0.80976563 6.35640625 -0.55078125 5.4453125 C0.10986734 2.9299825 0.10986734 2.9299825 0 0 Z " fill="#666867" transform="translate(174,86)"/>
<path d="M0 0 C2.29160319 -0.02692484 4.58329546 -0.04636124 6.875 -0.0625 C8.15117188 -0.07410156 9.42734375 -0.08570313 10.7421875 -0.09765625 C14 0 14 0 16 1 C16.4140625 3.50390625 16.4140625 3.50390625 16.625 6.5625 C16.69976562 7.57441406 16.77453125 8.58632812 16.8515625 9.62890625 C16.90054688 10.41136719 16.94953125 11.19382813 17 12 C15.35 12.33 13.7 12.66 12 13 C12 10.36 12 7.72 12 5 C11.34 5 10.68 5 10 5 C10 7.31 10 9.62 10 12 C8.0625 12.5625 8.0625 12.5625 6 13 C4.03177114 11.03177114 4.33751619 7.65191291 4 5 C3.67 7.64 3.34 10.28 3 13 C1.35 12.67 -0.3 12.34 -2 12 C-2.26785714 3.96428571 -2.26785714 3.96428571 0 0 Z " fill="#A6A7A6" transform="translate(108,134)"/>
<path d="M0 0 C3 2 3 2 3.65234375 3.8828125 C4.30348213 9.0027225 4.0440035 12.69427919 1.42578125 17.2109375 C-2.84587161 22.5709841 -9.34069276 25.150908 -16 26 C-21.08684128 26.29601833 -26.04350675 26.32173153 -31 25 C-31 24.67 -31 24.34 -31 24 C-21.1 23.505 -21.1 23.505 -11 23 C-10.67 22.34 -10.34 21.68 -10 21 C-8.35 21 -6.7 21 -5 21 C-5 20.34 -5 19.68 -5 19 C-5.66 19 -6.32 19 -7 19 C-7 18.01 -7 17.02 -7 16 C-9.33075929 16.95865509 -9.33075929 16.95865509 -11 20 C-12.97119141 20.2487793 -12.97119141 20.2487793 -15.3515625 20.07421875 C-16.20234375 20.01943359 -17.053125 19.96464844 -17.9296875 19.90820312 C-18.81914063 19.83537109 -19.70859375 19.76253906 -20.625 19.6875 C-21.5221875 19.62626953 -22.419375 19.56503906 -23.34375 19.50195312 C-25.56386306 19.34843467 -27.78194979 19.18056839 -30 19 C-30.66 17.02 -31.32 15.04 -32 13 C-30.88625 13.7115625 -30.88625 13.7115625 -29.75 14.4375 C-24.44941594 17.44919549 -18.91365589 17.81721933 -12.9609375 16.57421875 C-10.77188845 15.92386728 -10.77188845 15.92386728 -8 14 C-6.9384058 10.41136476 -6.9384058 10.41136476 -7 7 C-6.34 7 -5.68 7 -5 7 C-5 8.98 -5 10.96 -5 13 C-3.68 13.33 -2.36 13.66 -1 14 C-0.67 13.01 -0.34 12.02 0 11 C0.66 11 1.32 11 2 11 C1.855625 9.741875 1.71125 8.48375 1.5625 7.1875 C1.48128906 6.47980469 1.40007813 5.77210938 1.31640625 5.04296875 C1.02829265 2.80603607 1.02829265 2.80603607 0 0 Z " fill="#E6696B" transform="translate(60,124)"/>
<path d="M0 0 C3.0625 0.125 3.0625 0.125 5.0625 1.125 C6.2690625 0.8465625 6.2690625 0.8465625 7.5 0.5625 C10.0625 0.125 10.0625 0.125 13.0625 2.125 C13.0625 3.115 13.0625 4.105 13.0625 5.125 C11.7425 5.125 10.4225 5.125 9.0625 5.125 C8.7325 6.445 8.4025 7.765 8.0625 9.125 C9.7125 9.125 11.3625 9.125 13.0625 9.125 C12.7325 10.445 12.4025 11.765 12.0625 13.125 C8.6875 13.25 8.6875 13.25 5.0625 13.125 C3.0625 11.125 3.0625 11.125 2.9375 8 C2.97875 7.05125 3.02 6.1025 3.0625 5.125 C2.0725 5.125 1.0825 5.125 0.0625 5.125 C0.0625 7.765 0.0625 10.405 0.0625 13.125 C-1.2575 13.125 -2.5775 13.125 -3.9375 13.125 C-3.96436553 11.14590602 -3.98383375 9.16671029 -4 7.1875 C-4.01160156 6.08535156 -4.02320313 4.98320312 -4.03515625 3.84765625 C-3.89925596 0.05875603 -3.81427871 0.16230973 0 0 Z " fill="#B1B1B1" transform="translate(141.9375,133.875)"/>
<path d="M0 0 C2.52956374 2.31274399 2.90735902 3.74703078 3.15625 7.11328125 C3.18413963 9.07601379 3.09968126 11.03960195 3 13 C2.34 13 1.68 13 1 13 C1 14.65 1 16.3 1 18 C-1.5 16.875 -1.5 16.875 -4 15 C-4.3125 11.8125 -4.3125 11.8125 -4 9 C-4.66 9 -5.32 9 -6 9 C-6 7 -6 7 -5 6 C-7.97 5.505 -7.97 5.505 -11 5 C-11 4.34 -11 3.68 -11 3 C-11.66 2.34 -12.32 1.68 -13 1 C-9.04798846 -0.97600577 -4.29908828 -0.56018423 0 0 Z " fill="#DE2123" transform="translate(59,122)"/>
<path d="M0 0 C2.98149775 1.58510007 4.06103239 3.15371989 5.375 6.25 C4.385 6.25 3.395 6.25 2.375 6.25 C2.230625 7.178125 2.08625 8.10625 1.9375 9.0625 C1.375 12.25 1.375 12.25 0.375 15.25 C-0.285 14.92 -0.945 14.59 -1.625 14.25 C-1.625 12.6 -1.625 10.95 -1.625 9.25 C-2.285 9.25 -2.945 9.25 -3.625 9.25 C-3.625 8.59 -3.625 7.93 -3.625 7.25 C-11.16547904 6.17140138 -11.16547904 6.17140138 -18.625 7.25 C-17.625 5.75 -17.625 5.75 -15.625 4.25 C-12.90653765 3.97654521 -10.36822801 4.11508715 -7.625 4.25 C-7.625 3.59 -7.625 2.93 -7.625 2.25 C-6.965 2.25 -6.305 2.25 -5.625 2.25 C-5.955 1.59 -6.285 0.93 -6.625 0.25 C-11.75083611 0.14748328 -16.57497778 0.21409801 -21.625 1.25 C-16.46659463 -3.90840537 -6.21302005 -2.90700938 0 0 Z " fill="#9D9E9E" transform="translate(172.625,80.75)"/>
<path d="M0 0 C1.8125 1.1875 1.8125 1.1875 3 3 C3.1875 5.6875 3.1875 5.6875 3 8 C1.68 8.33 0.36 8.66 -1 9 C-0.01 9 0.98 9 2 9 C2 10.32 2 11.64 2 13 C-5.75 13.125 -5.75 13.125 -8 12 C-8.66803873 9.08925983 -9.13624395 6.92356816 -9 4 C-6.56938976 0.26059963 -4.40311298 -0.79030233 0 0 Z " fill="#C3C4C4" transform="translate(134,134)"/>
<path d="M0 0 C1.26237731 2.52475462 1.09856404 4.31200466 1.0625 7.125 C1.05347656 8.03507813 1.04445312 8.94515625 1.03515625 9.8828125 C1.02355469 10.58148438 1.01195312 11.28015625 1 12 C-6.36357143 13.32785714 -6.36357143 13.32785714 -9.0625 11.9375 C-10.44919588 9.07166184 -9.68426916 7.0481081 -9 4 C-9 2.68 -9 1.36 -9 0 C-5.49270578 -1.16909807 -3.55692677 -0.85056945 0 0 Z M-5 7 C-5.33 7.66 -5.66 8.32 -6 9 C-5.34 9 -4.68 9 -4 9 C-4.33 8.34 -4.66 7.68 -5 7 Z " fill="#A1A1A1" transform="translate(171,135)"/>
<path d="M0 0 C2.31 0.33 4.62 0.66 7 1 C7 1.66 7 2.32 7 3 C6.67 3.33 6.34 3.66 6 4 C7.5778125 3.9690625 7.5778125 3.9690625 9.1875 3.9375 C16.10783166 4.05094806 18.13415805 5.00610958 23 10 C23.99 10 24.98 10 26 10 C26 11.65 26 13.3 26 15 C25.34 15 24.68 15 24 15 C24 17.64 24 20.28 24 23 C23.34 23 22.68 23 22 23 C22.05800781 22.41992188 22.11601563 21.83984375 22.17578125 21.2421875 C22.42707555 16.89120624 22.49455454 13.95019754 19.625 10.5 C16.00382025 7.05125738 13.9489375 6.64035311 8.91015625 6.72265625 C6.82464062 6.85885228 6.82464062 6.85885228 5 8.625 C3.70382813 11.70340819 3.60125997 13.67716638 4 17 C5.39924945 20.30101131 5.39924945 20.30101131 7 23 C5.35 23 3.7 23 2 23 C2.01160156 21.98679687 2.02320313 20.97359375 2.03515625 19.9296875 C2.04454209 18.57812686 2.05364143 17.2265642 2.0625 15.875 C2.07087891 15.20984375 2.07925781 14.5446875 2.08789062 13.859375 C2.13653426 6.7142746 2.13653426 6.7142746 0 0 Z " fill="#E4575A" transform="translate(27,78)"/>
<path d="M0 0 C0.33 0.99 0.66 1.98 1 3 C0.34 3 -0.32 3 -1 3 C-1 3.66 -1 4.32 -1 5 C-2.06541016 5.18175781 -2.06541016 5.18175781 -3.15234375 5.3671875 C-4.07144531 5.53476563 -4.99054688 5.70234375 -5.9375 5.875 C-6.85402344 6.03742188 -7.77054688 6.19984375 -8.71484375 6.3671875 C-9.46894531 6.57601562 -10.22304687 6.78484375 -11 7 C-11.33 7.66 -11.66 8.32 -12 9 C-12.66 9 -13.32 9 -14 9 C-14 8.34 -14 7.68 -14 7 C-14.99 7 -15.98 7 -17 7 C-16.375 4.625 -16.375 4.625 -15 2 C-10.17609169 -0.47078231 -5.28328679 -0.21133147 0 0 Z " fill="#6C6D6C" transform="translate(166,80)"/>
<path d="M0 0 C2.475 0.495 2.475 0.495 5 1 C5 5.95 5 10.9 5 16 C3.35 16.33 1.7 16.66 0 17 C0 11.39 0 5.78 0 0 Z " fill="#A9A9A9" transform="translate(173,130)"/>
<path d="M0 0 C2.97 0 5.94 0 9 0 C8.01 0.495 8.01 0.495 7 1 C6.62690101 2.65821773 6.29299023 4.32577014 6 6 C5 7 5 7 2.1875 7.0625 C1.135625 7.041875 0.08375 7.02125 -1 7 C-2.32 7 -3.64 7 -5 7 C-3.02 7.66 -1.04 8.32 1 9 C1 9.33 1 9.66 1 10 C-5.75 9.25 -5.75 9.25 -8 7 C-8 5.68 -8 4.36 -8 3 C-6.865625 2.87625 -5.73125 2.7525 -4.5625 2.625 C-3.386875 2.41875 -2.21125 2.2125 -1 2 C-0.67 1.34 -0.34 0.68 0 0 Z " fill="#E76A69" transform="translate(43,108)"/>
<path d="M0 0 C-0.875 4.875 -0.875 4.875 -2 6 C-3.68183948 6.23287008 -5.3712416 6.41264166 -7.0625 6.5625 C-7.98160156 6.64628906 -8.90070313 6.73007812 -9.84765625 6.81640625 C-10.55792969 6.87699219 -11.26820312 6.93757813 -12 7 C-12 6.67 -12 6.34 -12 6 C-14.97 5.505 -14.97 5.505 -18 5 C-15.32046159 2.32046159 -12.60334255 2.02952644 -9 1 C-8.34 0.34 -7.68 -0.32 -7 -1 C-3.54627068 -2.33692748 -3.29510824 -2.19673883 0 0 Z " fill="#EDA7A6" transform="translate(84,56)"/>
<path d="M0 0 C1.43088528 2.86177057 0.59991697 4.93375773 0 8 C0.66 8 1.32 8 2 8 C2.20625 8.61875 2.4125 9.2375 2.625 9.875 C4.54775888 12.84653645 6.66594527 13.13024659 10 14 C10 14.33 10 14.66 10 15 C8.3603125 15.37125 8.3603125 15.37125 6.6875 15.75 C3.06947185 16.70472462 3.06947185 16.70472462 1.0625 18.75 C-0.29308997 21.62066111 -0.21379515 23.86433782 0 27 C-0.66 26.34 -1.32 25.68 -2 25 C-1.65238379 21.24574497 -1.0165376 17.63049144 0 14 C0.66 14 1.32 14 2 14 C2 13.34 2 12.68 2 12 C-2.54170996 13.90884692 -2.54170996 13.90884692 -7 16 C-5.60667426 12.63279613 -4.0210714 11.0140476 -1 9 C-1.20625 8.071875 -1.4125 7.14375 -1.625 6.1875 C-2 3 -2 3 0 0 Z " fill="#EB8D8C" transform="translate(28,110)"/>
<path d="M0 0 C0.94875 0.04125 1.8975 0.0825 2.875 0.125 C2.875 1.445 2.875 2.765 2.875 4.125 C1.555 3.795 0.235 3.465 -1.125 3.125 C-1.125 3.785 -1.125 4.445 -1.125 5.125 C-7.065 5.455 -13.005 5.785 -19.125 6.125 C-19.125 8.105 -19.125 10.085 -19.125 12.125 C-20.115 11.795 -21.105 11.465 -22.125 11.125 C-21.875 8.25 -21.875 8.25 -21.125 5.125 C-17.12773058 2.32878806 -12.50896844 2.69878819 -7.8046875 2.46875 C-4.15842154 2.00100743 -3.82215311 0.15288612 0 0 Z " fill="#EA8989" transform="translate(37.125,70.875)"/>
<path d="M0 0 C1.38226016 2.76452033 1.09525387 5.0461363 1.0625 8.125 C1.05347656 9.22070312 1.04445313 10.31640625 1.03515625 11.4453125 C1.02355469 12.28835937 1.01195312 13.13140625 1 14 C1.99 13.67 2.98 13.34 4 13 C4.33 13.99 4.66 14.98 5 16 C5.66 16 6.32 16 7 16 C6.67 17.32 6.34 18.64 6 20 C6.99 20 7.98 20 9 20 C9 20.66 9 21.32 9 22 C4.03570389 20.75892597 1.86128172 19.23893588 -1 15 C-2.16297973 12.67404054 -2.16600691 11.21276769 -2.1875 8.625 C-2.20167969 7.85414063 -2.21585938 7.08328125 -2.23046875 6.2890625 C-1.97801607 3.78165112 -1.25193467 2.16738098 0 0 Z " fill="#E75F61" transform="translate(20,126)"/>
<path d="M0 0 C1.32 0 2.64 0 4 0 C4 5.61 4 11.22 4 17 C2.68 17 1.36 17 0 17 C-1.0212675 12.34755916 -0.72013877 8.68090202 0 4 C-0.33 3.34 -0.66 2.68 -1 2 C-0.67 1.34 -0.34 0.68 0 0 Z " fill="#A2A2A2" transform="translate(156,130)"/>
<path d="M0 0 C0 0.66 0 1.32 0 2 C-0.99 2.33 -1.98 2.66 -3 3 C-3.33 4.65 -3.66 6.3 -4 8 C-2.68 8 -1.36 8 0 8 C0 8.99 0 9.98 0 11 C-3 12 -3 12 -5.625 11.4375 C-8 10 -8 10 -8.875 7.0625 C-9 4 -9 4 -8 1 C-5.29120665 -0.35439668 -2.99066732 -0.06501451 0 0 Z " fill="#ACACAC" transform="translate(73,136)"/>
<path d="M0 0 C2.14576637 -0.02685938 4.29162645 -0.04633088 6.4375 -0.0625 C7.63246094 -0.07410156 8.82742187 -0.08570313 10.05859375 -0.09765625 C13 0 13 0 14 1 C14.07179964 2.51928038 14.08392007 4.04167482 14.0625 5.5625 C14.05347656 6.38878906 14.04445313 7.21507812 14.03515625 8.06640625 C14.02355469 8.70449219 14.01195313 9.34257812 14 10 C13.34 10 12.68 10 12 10 C12 7.36 12 4.72 12 2 C10.68 2 9.36 2 8 2 C8 4.64 8 7.28 8 10 C7.01 10 6.02 10 5 10 C5 7.36 5 4.72 5 2 C3.35 1.67 1.7 1.34 0 1 C0 0.67 0 0.34 0 0 Z " fill="#7A7B7A" transform="translate(90,136)"/>
<path d="M0 0 C0.66 0.33 1.32 0.66 2 1 C2 1.66 2 2.32 2 3 C2.99 3.33 3.98 3.66 5 4 C5 5.65 5 7.3 5 9 C4.67 8.34 4.34 7.68 4 7 C3.236875 7.515625 2.47375 8.03125 1.6875 8.5625 C0.800625 9.036875 -0.08625 9.51125 -1 10 C-1.99 9.67 -2.98 9.34 -4 9 C-3.34 8.67 -2.68 8.34 -2 8 C-2.66 7.67 -3.32 7.34 -4 7 C-4 6.34 -4 5.68 -4 5 C-5.670625 5.061875 -5.670625 5.061875 -7.375 5.125 C-11 5 -11 5 -13 3 C-12.14535156 2.86722656 -11.29070312 2.73445313 -10.41015625 2.59765625 C-9.30542969 2.42105469 -8.20070313 2.24445313 -7.0625 2.0625 C-5.96035156 1.88847656 -4.85820313 1.71445313 -3.72265625 1.53515625 C-1.09573071 1.28154864 -1.09573071 1.28154864 0 0 Z " fill="#989A99" transform="translate(87,118)"/>
<path d="M0 0 C1.2684375 0.12375 1.2684375 0.12375 2.5625 0.25 C3.2225 1.24 3.8825 2.23 4.5625 3.25 C3.5725 3.25 2.5825 3.25 1.5625 3.25 C1.2325 4.9 0.9025 6.55 0.5625 8.25 C1.8825 8.58 3.2025 8.91 4.5625 9.25 C3.41076645 11.71800047 2.51466435 13.29783565 0.5625 15.25 C0.129375 13.8578125 0.129375 13.8578125 -0.3125 12.4375 C-1.325 9.15208333 -1.325 9.15208333 -3.4375 6.25 C-3.625 3.625 -3.625 3.625 -3.4375 1.25 C-2.4375 0.25 -2.4375 0.25 0 0 Z " fill="#DE2225" transform="translate(20.4375,75.75)"/>
<path d="M0 0 C1.98 0 3.96 0 6 0 C4.515 1.98 4.515 1.98 3 4 C4.65 4 6.3 4 8 4 C8.33 3.01 8.66 2.02 9 1 C9.33 2.32 9.66 3.64 10 5 C7.69 5 5.38 5 3 5 C3.33 5.99 3.66 6.98 4 8 C5.65 8 7.3 8 9 8 C9 8.66 9 9.32 9 10 C6.03 10 3.06 10 0 10 C-1.125 2.25 -1.125 2.25 0 0 Z " fill="#929392" transform="translate(126,136)"/>
<path d="M0 0 C1.9375 0.8125 1.9375 0.8125 4 2 C4.33 2.99 4.66 3.98 5 5 C4.01 5 3.02 5 2 5 C1.855625 5.928125 1.71125 6.85625 1.5625 7.8125 C1 11 1 11 0 14 C-0.66 13.67 -1.32 13.34 -2 13 C-2 11.35 -2 9.7 -2 8 C-2.66 8 -3.32 8 -4 8 C-3.50168276 4.31245243 -2.89932357 2.39509338 0 0 Z " fill="#8A8C8B" transform="translate(173,82)"/>
<path d="M0 0 C0.99 0.495 0.99 0.495 2 1 C3.09311962 4.27935886 3.17311176 6.82507456 3.24609375 10.27734375 C3.29540039 12.13069336 3.29540039 12.13069336 3.34570312 14.02148438 C3.40680744 16.62816862 3.46411092 19.23494479 3.51757812 21.84179688 C3.55173828 23.07865234 3.58589844 24.31550781 3.62109375 25.58984375 C3.6461499 26.72284912 3.67120605 27.85585449 3.69702148 29.02319336 C3.98758387 31.87800981 4.5202445 33.57592441 6 36 C6.33 36 6.66 36 7 36 C7 37.98 7 39.96 7 42 C4 41 4 41 2.83618164 38.88085938 C1.84546672 35.46759337 1.6928711 32.4604981 1.62109375 28.90625 C1.60409927 28.23710571 1.5871048 27.56796143 1.56959534 26.87854004 C1.51676554 24.75245454 1.47632374 22.62638358 1.4375 20.5 C1.39337321 18.37371582 1.3465006 16.24757118 1.29469299 14.12145996 C1.24845894 12.19243307 1.21079041 10.2632065 1.17358398 8.33398438 C1.02280252 5.43796229 0.66354725 2.81598086 0 0 Z " fill="#D9DAD9" transform="translate(96,86)"/>
<path d="M0 0 C2.31 0.66 4.62 1.32 7 2 C7 4.64 7 7.28 7 10 C7.99 10.33 8.98 10.66 10 11 C8.68 11 7.36 11 6 11 C6 8.36 6 5.72 6 3 C5.34 3 4.68 3 4 3 C4 5.64 4 8.28 4 11 C2.68 11 1.36 11 0 11 C0 7.37 0 3.74 0 0 Z " fill="#A3A4A4" transform="translate(88,136)"/>
<path d="M0 0 C3.5625 0.1875 3.5625 0.1875 5.5625 2.1875 C5.75 5.75 5.75 5.75 5.5625 9.1875 C4.5625 10.1875 4.5625 10.1875 1.5 10.25 C0.530625 10.229375 -0.43875 10.20875 -1.4375 10.1875 C-0.4475 9.8575 0.5425 9.5275 1.5625 9.1875 C1.5625 6.8775 1.5625 4.5675 1.5625 2.1875 C0.5725 2.1875 -0.4175 2.1875 -1.4375 2.1875 C-1.7675 4.4975 -2.0975 6.8075 -2.4375 9.1875 C-3.0975 9.1875 -3.7575 9.1875 -4.4375 9.1875 C-4.53515625 3.03515625 -4.53515625 3.03515625 -4.4375 1.1875 C-3.4375 0.1875 -3.4375 0.1875 0 0 Z " fill="#6D6D6D" transform="translate(80.4375,135.8125)"/>
<path d="M0 0 C10.0496 -0.792 10.0496 -0.792 14 2.5 C14.66 3.325 15.32 4.15 16 5 C16.99 5 17.98 5 19 5 C19 6.65 19 8.3 19 10 C18.34 10 17.68 10 17 10 C17 12.64 17 15.28 17 18 C16.34 18 15.68 18 15 18 C15.05800781 17.41992188 15.11601563 16.83984375 15.17578125 16.2421875 C15.42793029 11.87640703 15.26388787 9.48379442 13.125 5.5625 C9.62138962 1.89640334 4.8337893 1.54438792 0 1 C0 0.67 0 0.34 0 0 Z " fill="#EB8C8B" transform="translate(34,83)"/>
<path d="M0 0 C3.625 0.375 3.625 0.375 7 1 C7.33 1.99 7.66 2.98 8 4 C6.3125 5.5625 6.3125 5.5625 4 7 C1.25 6.6875 1.25 6.6875 -1 6 C-1.625 4.125 -1.625 4.125 -2 2 C-1.34 1.34 -0.68 0.68 0 0 Z " fill="#E87A7B" transform="translate(89,53)"/>
<path d="M0 0 C0 1.65 0 3.3 0 5 C-1.75 6.125 -1.75 6.125 -4 7 C-6.25 6.125 -6.25 6.125 -8 5 C-8 3.35 -8 1.7 -8 0 C-4.71023192 -1.09658936 -3.28696233 -0.79953138 0 0 Z " fill="#818281" transform="translate(100,123)"/>
<path d="M0 0 C0.5625 1.9375 0.5625 1.9375 1 4 C0.67 4.33 0.34 4.66 0 5 C-0.04063832 6.66617115 -0.042721 8.33388095 0 10 C1.98 9.67 3.96 9.34 6 9 C7.79640787 12.36826475 8 14.18260321 8 18 C6.948125 17.13375 6.948125 17.13375 5.875 16.25 C2.99370117 13.99507048 0.06371781 11.99497904 -3 10 C-2.49287967 6.28111761 -1.88391785 3.26545761 0 0 Z " fill="#E98A8A" transform="translate(20,91)"/>
<path d="M0 0 C0.33 0.99 0.66 1.98 1 3 C-0.32 3 -1.64 3 -3 3 C-3.33 4.32 -3.66 5.64 -4 7 C-2.35 7 -0.7 7 1 7 C0.67 8.32 0.34 9.64 0 11 C-3.375 11.125 -3.375 11.125 -7 11 C-9 9 -9 9 -9.125 5.875 C-9.08375 4.92625 -9.0425 3.9775 -9 3 C-8.67 3 -8.34 3 -8 3 C-7.34 4.98 -6.68 6.96 -6 9 C-5.67 9 -5.34 9 -5 9 C-5 6.69 -5 4.38 -5 2 C-3.35 1.34 -1.7 0.68 0 0 Z " fill="#C5C5C5" transform="translate(154,136)"/>
<path d="M0 0 C1.11375 0.7115625 1.11375 0.7115625 2.25 1.4375 C7.00720457 4.14045714 11.55522237 4.58756593 17 4 C19.78881798 3.18422331 22.32037097 2.14841244 25 1 C25 1.66 25 2.32 25 3 C24.01 3.495 24.01 3.495 23 4 C22.01 5.485 22.01 5.485 21 7 C19.02880859 7.2487793 19.02880859 7.2487793 16.6484375 7.07421875 C15.79765625 7.01943359 14.946875 6.96464844 14.0703125 6.90820312 C13.18085937 6.83537109 12.29140625 6.76253906 11.375 6.6875 C10.4778125 6.62626953 9.580625 6.56503906 8.65625 6.50195312 C6.43613694 6.34843467 4.21805021 6.18056839 2 6 C1.34 4.02 0.68 2.04 0 0 Z " fill="#EA8E8E" transform="translate(28,137)"/>
<path d="M0 0 C1.98 0 3.96 0 6 0 C0.48421771 5.05613377 -6.61696236 5.2790516 -13.72265625 5.13671875 C-16.2194931 4.98682288 -18.5813583 4.64497112 -21 4 C-21 3.67 -21 3.34 -21 3 C-11.1 2.505 -11.1 2.505 -1 2 C-0.67 1.34 -0.34 0.68 0 0 Z " fill="#EDA1A0" transform="translate(50,145)"/>
<path d="M0 0 C0.66 0.33 1.32 0.66 2 1 C1.34 2.32 0.68 3.64 0 5 C0.99 5 1.98 5 3 5 C3.33 5.99 3.66 6.98 4 8 C2.68 9.32 1.36 10.64 0 12 C-0.12375 11.071875 -0.12375 11.071875 -0.25 10.125 C-0.81258459 7.81562433 -0.81258459 7.81562433 -3.0625 6.75 C-3.701875 6.5025 -4.34125 6.255 -5 6 C-3.63016497 2.83884224 -3.0109362 2.0072908 0 0 Z " fill="#929393" transform="translate(149,82)"/>
<path d="M0 0 C2.171875 1.3828125 2.171875 1.3828125 5.234375 3.8828125 C4.904375 4.5428125 4.574375 5.2028125 4.234375 5.8828125 C2.254375 4.8928125 0.274375 3.9028125 -1.765625 2.8828125 C-1.765625 2.2228125 -1.765625 1.5628125 -1.765625 0.8828125 C-4.14070355 0.85561694 -6.51546464 0.83588003 -8.890625 0.8203125 C-9.55578125 0.81193359 -10.2209375 0.80355469 -10.90625 0.79492188 C-14.97243854 0.77498958 -18.7776342 1.09391089 -22.765625 1.8828125 C-17.74872742 -3.13408508 -6.29201359 -2.5416891 0 0 Z " fill="#BDBEBE" transform="translate(90.765625,80.1171875)"/>
<path d="M0 0 C-0.33 0.99 -0.66 1.98 -1 3 C-1.99 3 -2.98 3 -4 3 C-4.33 5.31 -4.66 7.62 -5 10 C-4.01 10.33 -3.02 10.66 -2 11 C-3.65 10.67 -5.3 10.34 -7 10 C-7 6.7 -7 3.4 -7 0 C-3.86650268 -1.04449911 -3.01031744 -0.93423645 0 0 Z " fill="#808080" transform="translate(154,135)"/>
<path d="M0 0 C0.66 1.65 1.32 3.3 2 5 C-0.875 5.625 -0.875 5.625 -4 6 C-6 4 -6 4 -8 1 C-5.29120665 -0.35439668 -2.99066732 -0.06501451 0 0 Z " fill="#DD1F21" transform="translate(54,122)"/>
<path d="M0 0 C2.475 0.495 2.475 0.495 5 1 C2.33574815 3.67838582 0.90829937 4.00846888 -2.93359375 4.36328125 C-4.43499067 4.36195843 -5.93644454 4.34454644 -7.4375 4.3125 C-8.18837891 4.31572266 -8.93925781 4.31894531 -9.71289062 4.32226562 C-13.91359779 4.28162554 -17.16678416 3.91279757 -21 2 C-17.25 0.875 -17.25 0.875 -15 2 C-12.44842345 2.0716735 -9.92527029 2.09308442 -7.375 2.0625 C-6.66859375 2.05798828 -5.9621875 2.05347656 -5.234375 2.04882812 C-3.48954725 2.03703875 -1.744763 2.01910324 0 2 C0 1.34 0 0.68 0 0 Z " fill="#B1B2B1" transform="translate(171,125)"/>
<path d="M0 0 C-0.33 0.99 -0.66 1.98 -1 3 C-3.31 3 -5.62 3 -8 3 C-8 3.99 -8 4.98 -8 6 C-10.97 5.505 -10.97 5.505 -14 5 C-8.84290377 0.79289518 -6.71792803 -0.12440607 0 0 Z " fill="#DF3134" transform="translate(73,61)"/>
<path d="M0 0 C0.66 0.33 1.32 0.66 2 1 C3.34422204 5.03266611 3.45703395 8.78005323 3 13 C1.5 15.5625 1.5 15.5625 0 17 C-0.66 16.67 -1.32 16.34 -2 16 C-1.34 15.34 -0.68 14.68 0 14 C-0.28674418 11.99279077 -0.61866701 9.9914056 -1 8 C-0.67 7.67 -0.34 7.34 0 7 C0.04092937 4.66702567 0.04241723 2.33294775 0 0 Z " fill="#AFB0B0" transform="translate(178,87)"/>
<path d="M0 0 C0 1.32 0 2.64 0 4 C-4.75 5.125 -4.75 5.125 -7 4 C-7 2.68 -7 1.36 -7 0 C-4.3333581 -1.33332095 -2.83319697 -0.67102033 0 0 Z " fill="#EA8D8F" transform="translate(105,54)"/>
<path d="M0 0 C-2.07808677 2.07808677 -3.15929047 2.5305555 -5.875 3.4375 C-9.02226539 4.55907094 -11.4562786 5.77424377 -14 8 C-12.50521886 4.19510255 -10.30557786 2.33809165 -7 0 C-3.86650268 -1.04449911 -3.01031744 -0.93423645 0 0 Z " fill="#B4B5B5" transform="translate(76,99)"/>
<path d="M0 0 C0.99 0.495 0.99 0.495 2 1 C1.979375 1.9075 1.95875 2.815 1.9375 3.75 C1.92097872 7.51077575 1.92097872 7.51077575 3 11 C5.49034386 12.29660434 5.49034386 12.29660434 8 13 C6.02 13.99 6.02 13.99 4 15 C4 14.01 4 13.02 4 12 C2.68 12 1.36 12 0 12 C0 8.04 0 4.08 0 0 Z " fill="#EA8080" transform="translate(52,75)"/>
<path d="M0 0 C0.99 0 1.98 0 3 0 C3 0.99 3 1.98 3 3 C4.32 3.33 5.64 3.66 7 4 C5.84826645 6.46800047 4.95216435 8.04783565 3 10 C1.87119943 6.68885166 0.78697325 3.41021743 0 0 Z " fill="#E35152" transform="translate(18,81)"/>
<path d="M0 0 C3.3 0 6.6 0 10 0 C10 0.33 10 0.66 10 1 C8.3603125 1.37125 8.3603125 1.37125 6.6875 1.75 C3.06947185 2.70472462 3.06947185 2.70472462 1.0625 4.75 C-0.29308997 7.62066111 -0.21379515 9.86433782 0 13 C-0.66 12.34 -1.32 11.68 -2 11 C-1.64838975 7.2026093 -0.92533106 3.70132424 0 0 Z " fill="#EDA1A1" transform="translate(28,124)"/>
<path d="M0 0 C0.33 0 0.66 0 1 0 C1.66 2.97 2.32 5.94 3 9 C3.66 9 4.32 9 5 9 C5 10.98 5 12.96 5 15 C2 14 2 14 0.8125 12 C-0.28113733 7.96195446 -0.16301345 4.15684292 0 0 Z " fill="#BCBDBC" transform="translate(98,113)"/>
<path d="M0 0 C1.36125 0.12375 1.36125 0.12375 2.75 0.25 C2.75 0.91 2.75 1.57 2.75 2.25 C2.09 2.25 1.43 2.25 0.75 2.25 C0.75 2.91 0.75 3.57 0.75 4.25 C-1.89 4.25 -4.53 4.25 -7.25 4.25 C-4.83923194 1.28290085 -3.90322061 0.30024774 0 0 Z " fill="#646665" transform="translate(164.25,80.75)"/>
<path d="M0 0 C0 0.66 0 1.32 0 2 C-0.99 2.33 -1.98 2.66 -3 3 C-4.21869929 5.50447516 -4.21869929 5.50447516 -5 8 C-6.65 8 -8.3 8 -10 8 C-10 7.01 -10 6.02 -10 5 C-8.68 5 -7.36 5 -6 5 C-5.566875 4.0409375 -5.566875 4.0409375 -5.125 3.0625 C-3.72314735 0.49243681 -2.91896073 0 0 0 Z " fill="#E76C6E" transform="translate(51,68)"/>
<path d="M0 0 C1.2065625 0.0309375 1.2065625 0.0309375 2.4375 0.0625 C3.4375 3.0625 3.4375 3.0625 2.4375 6.0625 C0.7875 6.0625 -0.8625 6.0625 -2.5625 6.0625 C-2.2325 5.0725 -1.9025 4.0825 -1.5625 3.0625 C-2.2225 2.4025 -2.8825 1.7425 -3.5625 1.0625 C-2.5625 0.0625 -2.5625 0.0625 0 0 Z " fill="#B4B4B4" transform="translate(131.5625,133.9375)"/>
<path d="M0 0 C2.31 0.33 4.62 0.66 7 1 C6.67 2.32 6.34 3.64 6 5 C6.99 5 7.98 5 9 5 C9 5.66 9 6.32 9 7 C2.29787234 5.06382979 2.29787234 5.06382979 0 2 C0 1.34 0 0.68 0 0 Z " fill="#E97B7C" transform="translate(20,141)"/>
<path d="M0 0 C1.051875 0.495 1.051875 0.495 2.125 1 C6.15681285 2.40236969 9.39897049 2.67411769 13.375 1 C14.179375 0.505 14.179375 0.505 15 0 C15 1.32 15 2.64 15 4 C13.25034642 4.05429959 11.50020213 4.09292823 9.75 4.125 C8.77546875 4.14820312 7.8009375 4.17140625 6.796875 4.1953125 C3.9803502 3.99862781 2.39050964 3.44568916 0 2 C0 1.34 0 0.68 0 0 Z " fill="#ED9E9F" transform="translate(34,101)"/>
<path d="M0 0 C1.4540625 0.0309375 1.4540625 0.0309375 2.9375 0.0625 C2.6075 0.7225 2.2775 1.3825 1.9375 2.0625 C0.9475 2.0625 -0.0425 2.0625 -1.0625 2.0625 C-1.3925 4.3725 -1.7225 6.6825 -2.0625 9.0625 C-2.7225 9.0625 -3.3825 9.0625 -4.0625 9.0625 C-4.16015625 2.91015625 -4.16015625 2.91015625 -4.0625 1.0625 C-3.0625 0.0625 -3.0625 0.0625 0 0 Z " fill="#6C6C6C" transform="translate(70.0625,135.9375)"/>
<path d="M0 0 C-0.33 0.66 -0.66 1.32 -1 2 C-3.6739124 2.89130413 -6.23723823 3.47731534 -9 4 C-9 2.68 -9 1.36 -9 0 C-5.52176885 -1.15941038 -3.54104422 -0.70820884 0 0 Z " fill="#C3C3C3" transform="translate(171,135)"/>
<path d="M0 0 C1.65 0 3.3 0 5 0 C5 3.3 5 6.6 5 10 C4.34 10 3.68 10 3 10 C2.8046875 7.98177083 2.609375 5.96354167 2.4140625 3.9453125 C2.13625251 1.77331755 2.13625251 1.77331755 0 0 Z " fill="#6B6D6C" transform="translate(118,136)"/>
<path d="M0 0 C2.475 0.495 2.475 0.495 5 1 C5 3.97 5 6.94 5 10 C4.34 10 3.68 10 3 10 C2.8046875 7.98177083 2.609375 5.96354167 2.4140625 3.9453125 C2.13625251 1.77331755 2.13625251 1.77331755 0 0 Z " fill="#686A69" transform="translate(99,136)"/>
<path d="M0 0 C1.65 0 3.3 0 5 0 C-0.14285714 5.57142857 -0.14285714 5.57142857 -4 6 C-4 4.68 -4 3.36 -4 2 C-2.68 2.33 -1.36 2.66 0 3 C0 2.01 0 1.02 0 0 Z " fill="#E8797A" transform="translate(65,64)"/>
<path d="M0 0 C1.32 0 2.64 0 4 0 C4 1.32 4 2.64 4 4 C1.69 4 -0.62 4 -3 4 C-1.75 2 -1.75 2 0 0 Z " fill="#DE2224" transform="translate(78,56)"/>
<path d="M0 0 C0.33 0 0.66 0 1 0 C1.04241723 2.33294775 1.04092937 4.66702567 1 7 C0 8 0 8 -3.0625 8.0625 C-4.031875 8.041875 -5.00125 8.02125 -6 8 C-5.01 7.67 -4.02 7.34 -3 7 C-2.67 6.01 -2.34 5.02 -2 4 C-1.34 4 -0.68 4 0 4 C0 2.68 0 1.36 0 0 Z " fill="#878787" transform="translate(85,138)"/>
<path d="M0 0 C0.99 0.33 1.98 0.66 3 1 C2.67 3.97 2.34 6.94 2 10 C1.34 10 0.68 10 0 10 C0 6.7 0 3.4 0 0 Z " fill="#696969" transform="translate(139,136)"/>
<path d="M0 0 C0.99 0.33 1.98 0.66 3 1 C2.67 1.66 2.34 2.32 2 3 C2.33 3.99 2.66 4.98 3 6 C1.35 5.67 -0.3 5.34 -2 5 C-1.125 1.125 -1.125 1.125 0 0 Z " fill="#6B6D6C" transform="translate(106,81)"/>
<path d="M0 0 C2.125 0.9375 2.125 0.9375 4 2 C3.625 3.9375 3.625 3.9375 3 6 C2.01 6.495 2.01 6.495 1 7 C0.814375 6.071875 0.814375 6.071875 0.625 5.125 C0.12802644 2.80879168 0.12802644 2.80879168 -2 1 C-1.34 0.67 -0.68 0.34 0 0 Z " fill="#E87577" transform="translate(60,89)"/>
<path d="M0 0 C0.99 0.33 1.98 0.66 3 1 C3.33 2.65 3.66 4.3 4 6 C3.01 6 2.02 6 1 6 C0.34 4.35 -0.32 2.7 -1 1 C-0.67 0.67 -0.34 0.34 0 0 Z " fill="#DD2224" transform="translate(57,89)"/>
<path d="M0 0 C0.33 0 0.66 0 1 0 C1.66 1.98 2.32 3.96 3 6 C4.65 6 6.3 6 8 6 C8 6.66 8 7.32 8 8 C5.66705225 8.04241723 3.33297433 8.04092937 1 8 C0 7 0 7 -0.0625 3.4375 C-0.041875 2.303125 -0.02125 1.16875 0 0 Z " fill="#6A6C6B" transform="translate(127,138)"/>
<path d="M0 0 C3.3 0 6.6 0 10 0 C9.67 0.66 9.34 1.32 9 2 C8.34 2 7.68 2 7 2 C7 2.66 7 3.32 7 4 C4.08482708 2.92598892 2.22189824 2.22189824 0 0 Z " fill="#E87171" transform="translate(46,127)"/>
<path d="M0 0 C1.65 0 3.3 0 5 0 C5.33 0.99 5.66 1.98 6 3 C4.02 3.33 2.04 3.66 0 4 C0 2.68 0 1.36 0 0 Z " fill="#E24A4C" transform="translate(54,122)"/>
<path d="M0 0 C0.78375 0.04125 1.5675 0.0825 2.375 0.125 C1.385 0.805625 1.385 0.805625 0.375 1.5 C-0.615 2.304375 -0.615 2.304375 -1.625 3.125 C-1.625 3.785 -1.625 4.445 -1.625 5.125 C-2.945 5.455 -4.265 5.785 -5.625 6.125 C-4.86443086 2.32215429 -4.27658992 0.20364714 0 0 Z " fill="#DF2E30" transform="translate(41.625,117.875)"/>
<path d="M0 0 C0.33 0.99 0.66 1.98 1 3 C2.65 3.33 4.3 3.66 6 4 C6 4.33 6 4.66 6 5 C3.69 5 1.38 5 -1 5 C-0.67 3.35 -0.34 1.7 0 0 Z " fill="#7A7A7A" transform="translate(163,141)"/>
<path d="M0 0 C1.36125 0.12375 1.36125 0.12375 2.75 0.25 C-0.45336822 3.08374881 -3.03087253 3.7705537 -7.25 4.25 C-4.83923194 1.28290085 -3.90322061 0.30024774 0 0 Z " fill="#EB8E8F" transform="translate(53.25,144.75)"/>
<path d="M0 0 C-4.75 3.875 -4.75 3.875 -7 5 C-7 3.68 -7 2.36 -7 1 C-4.53721199 -0.231394 -2.7204945 -0.07159196 0 0 Z " fill="#E88484" transform="translate(61,70)"/>
<path d="" fill="#F7F7F7" transform="translate(0,0)"/>
<path d="" fill="#F3F5F4" transform="translate(0,0)"/>
<path d="" fill="#F7F7F7" transform="translate(0,0)"/>
</svg>
