<?xml version="1.0" encoding="UTF-8"?>
<svg width="800" height="200" viewBox="0 0 800 200" version="1.1" xmlns="http://www.w3.org/2000/svg">
  <!-- Background with rounded corners and gradient -->
  <rect width="800" height="200" fill="url(#bgGradient)" rx="20" ry="20" />
  
  <!-- Definitions for gradients and filters -->
  <defs>
    <linearGradient id="bgGradient" x1="0%" y1="0%" x2="100%" y2="100%">
      <stop offset="0%" stop-color="#0f172a" />
      <stop offset="100%" stop-color="#1e293b" />
    </linearGradient>
    
    <linearGradient id="logoGradient" x1="0%" y1="0%" x2="100%" y2="100%">
      <stop offset="0%" stop-color="#60a5fa" />
      <stop offset="100%" stop-color="#3b82f6" />
    </linearGradient>
    
    <linearGradient id="hGradient" x1="0%" y1="0%" x2="100%" y2="100%">
      <stop offset="0%" stop-color="#8b5cf6" />
      <stop offset="100%" stop-color="#7b79ff" />
    </linearGradient>
    
    <!-- Gradients for 3D effect with sci-fi colors -->
    <linearGradient id="face1" x1="0%" y1="0%" x2="100%" y2="100%">
      <stop offset="0%" stop-color="#22d3ee" />
      <stop offset="100%" stop-color="#0ea5e9" />
    </linearGradient>
    
    <linearGradient id="face2" x1="0%" y1="0%" x2="100%" y2="100%">
      <stop offset="0%" stop-color="#a855f7" />
      <stop offset="100%" stop-color="#6366f1" />
    </linearGradient>
    
    <linearGradient id="face3" x1="0%" y1="0%" x2="100%" y2="100%">
      <stop offset="0%" stop-color="#f472b6" />
      <stop offset="100%" stop-color="#e879f9" />
    </linearGradient>
    
    <!-- Simplified filters for static version -->
    <filter id="glow" x="-20%" y="-20%" width="140%" height="140%">
      <feGaussianBlur stdDeviation="4" result="blur" />
      <feComposite in="SourceGraphic" in2="blur" operator="over" />
    </filter>
    
    <filter id="softShadow" x="-10%" y="-10%" width="120%" height="140%">
      <feDropShadow dx="0" dy="4" stdDeviation="6" flood-color="#000" flood-opacity="0.2" />
    </filter>
    
    <filter id="bevel" x="-50%" y="-50%" width="200%" height="200%">
      <feGaussianBlur in="SourceAlpha" stdDeviation="2" result="blur"/>
      <feSpecularLighting in="blur" surfaceScale="5" specularConstant="1.8" specularExponent="20" lighting-color="#white" result="specOut">
        <fePointLight x="50" y="-50" z="200"/>
      </feSpecularLighting>
      <feComposite in="specOut" in2="SourceAlpha" operator="in" result="specOut"/>
      <feComposite in="SourceGraphic" in2="specOut" operator="arithmetic" k1="0" k2="1" k3="1" k4="0" result="litPaint"/>
      <feMerge>
        <feMergeNode in="litPaint"/>
      </feMerge>
    </filter>
    
    <pattern id="hologramLines" patternUnits="userSpaceOnUse" width="8" height="8" patternTransform="rotate(45)">
      <line x1="0" y1="0" x2="0" y2="8" stroke="#22d3ee" stroke-width="1" stroke-opacity="0.3"/>
    </pattern>
  </defs>
  
  <!-- 3D Geometric Logo Mark - static version -->
  <g transform="translate(40, 30)" filter="url(#softShadow)">
    <!-- Background effect -->
    <circle cx="50" cy="50" r="60" fill="url(#hologramLines)" opacity="0.2" />
    
    <!-- Static rings -->
    <circle cx="50" cy="50" r="50" fill="none" stroke="#22d3ee" stroke-width="0.5" opacity="0.4" />
    <circle cx="50" cy="50" r="65" fill="none" stroke="#a855f7" stroke-width="0.5" opacity="0.4" />
    
    <!-- Main geometric shape - static version -->
    <g>
      <!-- Face 1 - Front facing -->
      <path d="M50,10 L90,40 L70,90 L30,90 L10,40 Z" 
            fill="url(#face1)" 
            stroke="#22d3ee" 
            stroke-width="1.5" 
            opacity="0.95"
            filter="url(#bevel)" />
      
      <!-- Face 2 - Right side -->
      <path d="M90,40 L70,90 L70,70 L82,40 Z" 
            fill="url(#face2)" 
            stroke="#a855f7" 
            stroke-width="1" 
            opacity="0.9" />
      
      <!-- Face 3 - Left side -->
      <path d="M10,40 L30,90 L30,70 L18,40 Z" 
            fill="url(#face3)" 
            stroke="#f472b6" 
            stroke-width="1" 
            opacity="0.85" />
      
      <!-- Top perspective faces -->
      <path d="M50,10 L18,40 L30,70 L70,70 L82,40 Z" 
            fill="#0ea5e9" 
            stroke="#22d3ee" 
            stroke-width="1" 
            opacity="0.8" />
      
      <!-- Inner details -->
      <path d="M50,30 L65,45 L50,80 L35,45 Z" 
            fill="#f472b6" 
            stroke="#f9a8d4" 
            stroke-width="0.8" 
            stroke-dasharray="1,1"
            opacity="0.9" />
      
      <!-- Additional elements -->
      <path d="M40,40 L50,20 L60,40" fill="none" stroke="#22d3ee" stroke-width="1.2" opacity="0.9" />
      <path d="M30,60 L50,80 L70,60" fill="none" stroke="#a855f7" stroke-width="1.2" opacity="0.9" />
      
      <!-- Highlight accent -->
      <circle cx="50" cy="50" r="7" fill="#ffffff" opacity="0.6" />
      
      <!-- Edge highlights -->
      <path d="M50,10 L90,40 M90,40 L70,90 M70,90 L30,90 M30,90 L10,40 M10,40 L50,10" 
            stroke="#22d3ee" 
            stroke-width="1.5" 
            opacity="0.8" 
            stroke-linecap="round" />
      
      <!-- Additional edges -->
      <path d="M50,30 L70,50 M30,50 L50,70" 
            stroke="#f472b6" 
            stroke-width="0.8" 
            opacity="0.7" 
            stroke-linecap="round" />
    </g>
    
    <!-- H letter stylized in 3D - static version -->
    <g transform="translate(0, 20)">
      <!-- H letter with 3D effect -->
      <path d="M20,70 
               C20,70 20,30 20,30 
               C20,30 40,30 40,30 
               C40,30 40,45 40,45 
               C40,45 60,45 60,45 
               C60,45 60,30 60,30 
               C60,30 80,30 80,30 
               C80,30 80,70 80,70 
               C80,70 60,70 60,70 
               C60,70 60,55 60,55 
               C60,55 40,55 40,55 
               C40,55 40,70 40,70 Z" 
            fill="url(#hGradient)" 
            stroke="#a78bfa" 
            stroke-width="1"
            rx="4" 
            ry="4" />
      
      <!-- 3D extrusion for the H -->
      <path d="M20,70 
               C20,70 20,30 20,30 
               C20,30 40,30 40,30 
               C40,30 40,45 40,45 
               C40,45 60,45 60,45 
               C60,45 60,30 60,30 
               C60,30 80,30 80,30 
               C80,30 80,70 80,70 
               C80,70 60,70 60,70 
               C60,70 60,55 60,55 
               C60,55 40,55 40,55 
               C40,55 40,70 40,70 Z" 
            fill="none" 
            stroke="#7b79ff" 
            stroke-width="3"
            stroke-opacity="0.3"
            rx="4" 
            ry="4"
            transform="translate(3, 3)" />
    </g>
  </g>
  
  <!-- Text Elements with enhanced typography -->
  <g transform="translate(160, 95)" filter="url(#softShadow)">
    <!-- Hank Chou -->
    <text font-family="system-ui, -apple-system, BlinkMacSystemFont, 'Segoe UI', Roboto, sans-serif" font-size="40" font-weight="800" letter-spacing="0.01em">
      <tspan fill="#f472b6">Hank</tspan>
      <tspan fill="#e5e7eb" dx="14">Chou</tspan>
    </text>
    
    <!-- Technical Solutions -->
    <text font-family="system-ui, -apple-system, BlinkMacSystemFont, 'Segoe UI', Roboto, sans-serif" font-size="24" font-weight="500" x="0" y="40" fill="#8a87ff" letter-spacing="0.05em">
      Technical Solutions
    </text>
  </g>
  
  <!-- Decorative Elements -->
  <path d="M160,115 Q405,90 650,115" stroke="url(#logoGradient)" stroke-width="2" stroke-dasharray="1, 5" />
  
  <!-- Subtle decorative circles -->
  <circle cx="720" cy="60" r="12" fill="#22d3ee" opacity="0.5" />
  <circle cx="740" cy="90" r="8" fill="#a855f7" opacity="0.5" />
  <circle cx="760" cy="70" r="5" fill="#f472b6" opacity="0.5" />
</svg>
